<svg width="80" height="80" viewBox="0 0 80 80" fill="none" xmlns="http://www.w3.org/2000/svg">
    <path
        d="M39.3852 21.2239H8.49566C6.82502 21.2239 5.4707 22.5782 5.4707 24.2488V63.1302C5.4707 64.8008 6.82502 66.1552 8.49566 66.1552H66.8177C68.4883 66.1552 69.8427 64.8008 69.8427 63.1302V55.2478"
        stroke="#0C0C4F" stroke-width="1.5" />
    <path d="M6.01758 25.7095H39.3851" stroke="#0C0C4F" stroke-width="1.5" />
    <path d="M5.74805 58.6284H69.5621" stroke="#0C0C4F" stroke-width="1.5" />
    <path
        d="M72.779 52.5128H44.0009C42.885 52.5128 41.9824 51.6102 41.9824 50.4943V10.776C41.9824 9.66013 42.885 8.75757 44.0009 8.75757H62.0576L74.8029 21.2895V50.4943C74.8029 51.6102 73.9004 52.5128 72.7845 52.5128H72.779Z"
        stroke="#0C0C4F" stroke-width="1.5" />
    <path d="M62.0527 8.7522V19.2821C62.0527 20.398 62.9553 21.3006 64.0712 21.3006H74.7926" stroke="#0C0C4F"
        stroke-width="1.5" />
    <path
        d="M47.4258 34.7351C47.4258 34.2428 47.8251 33.8435 48.3174 33.8435H70.2306C70.7229 33.8435 71.1222 34.2428 71.1222 34.7351C71.1222 35.2274 70.7229 35.6268 70.2306 35.6268H48.3174C47.8251 35.6268 47.4258 35.2274 47.4258 34.7351Z"
        fill="#0C0C4F" />
    <path
        d="M48.3233 39.2041C47.831 39.2041 47.4316 39.6034 47.4316 40.0957C47.4316 40.588 47.831 40.9873 48.3233 40.9873H65.3134C65.8057 40.9873 66.205 40.588 66.205 40.0957C66.205 39.6034 65.8057 39.2041 65.3134 39.2041H48.3233Z"
        fill="#0C0C4F" />
    <path
        d="M47.4258 45.4673C47.4258 44.975 47.8251 44.5757 48.3174 44.5757H67.0962C67.5885 44.5757 67.9933 44.975 67.9933 45.4673C67.9933 45.9596 67.594 46.3589 67.0962 46.3589H48.3174C47.8251 46.3589 47.4258 45.9596 47.4258 45.4673Z"
        fill="#0C0C4F" />
    <path
        d="M50.0234 68.1355H25.2877C24.8678 68.1355 24.5273 68.4759 24.5273 68.8958V70.6572C24.5273 71.0771 24.8678 71.4175 25.2877 71.4175H50.0234C50.4433 71.4175 50.7838 71.0771 50.7838 70.6572V68.8958C50.7838 68.4759 50.4433 68.1355 50.0234 68.1355Z"
        fill="#0C0C4F" />
    <path fill-rule="evenodd" clip-rule="evenodd" d="M24.2725 49.2576V38.0794H24.7811V49.2576H24.2725Z"
        fill="#0C0C4F" />
    <path fill-rule="evenodd" clip-rule="evenodd"
        d="M24.3378 42.559L23.125 41.2122L23.503 40.8722L24.7158 42.219L24.3378 42.559Z" fill="#0C0C4F" />
    <path fill-rule="evenodd" clip-rule="evenodd"
        d="M24.347 47.4172L21.9215 44.993L22.2811 44.6336L24.7066 47.0578L24.347 47.4172Z" fill="#0C0C4F" />
    <path
        d="M21.0666 45.304C20.2239 45.304 19.541 44.6214 19.541 43.7792C19.541 42.937 20.2239 42.2544 21.0666 42.2544C21.9093 42.2544 22.5923 42.937 22.5923 43.7792C22.5923 44.6214 21.9093 45.304 21.0666 45.304Z"
        fill="#0C0C4F" />
    <path fill-rule="evenodd" clip-rule="evenodd"
        d="M21.0666 42.5085C20.3644 42.5085 19.7952 43.0773 19.7952 43.7792C19.7952 44.4811 20.3644 45.0499 21.0666 45.0499C21.7689 45.0499 22.338 44.4811 22.338 43.7792C22.338 43.0773 21.7689 42.5085 21.0666 42.5085ZM19.2867 43.7792C19.2867 42.7966 20.0835 42.0002 21.0666 42.0002C22.0498 42.0002 22.8466 42.7966 22.8466 43.7792C22.8466 44.7618 22.0498 45.5581 21.0666 45.5581C20.0835 45.5581 19.2867 44.7618 19.2867 43.7792Z"
        fill="#0C0C4F" />
    <path fill-rule="evenodd" clip-rule="evenodd"
        d="M24.347 45.0375L26.7725 42.6133L27.1322 42.9728L24.7066 45.3969L24.347 45.0375Z" fill="#0C0C4F" />
    <path
        d="M27.939 43.2839C28.7817 43.2839 29.4647 42.6013 29.4647 41.759C29.4647 40.9168 28.7817 40.2342 27.939 40.2342C27.0963 40.2342 26.4133 40.9168 26.4133 41.759C26.4133 42.6013 27.0963 43.2839 27.939 43.2839Z"
        fill="#0C0C4F" />
    <path fill-rule="evenodd" clip-rule="evenodd"
        d="M26.1591 41.759C26.1591 40.7765 26.9559 39.9801 27.939 39.9801C28.9221 39.9801 29.7189 40.7765 29.7189 41.759C29.7189 42.7416 28.9221 43.538 27.939 43.538C26.9559 43.538 26.1591 42.7416 26.1591 41.759ZM27.939 40.4884C27.2367 40.4884 26.6676 41.0572 26.6676 41.759C26.6676 42.4609 27.2367 43.0297 27.939 43.0297C28.6413 43.0297 29.2104 42.4609 29.2104 41.759C29.2104 41.0572 28.6413 40.4884 27.939 40.4884Z"
        fill="#0C0C4F" />
    <path
        d="M24.5702 38.0314C25.4129 38.0314 26.0959 37.3488 26.0959 36.5066C26.0959 35.6644 25.4129 34.9818 24.5702 34.9818C23.7275 34.9818 23.0445 35.6644 23.0445 36.5066C23.0445 37.3488 23.7275 38.0314 24.5702 38.0314Z"
        fill="#0C0C4F" />
    <path fill-rule="evenodd" clip-rule="evenodd"
        d="M22.7903 36.5066C22.7903 35.524 23.5871 34.7276 24.5702 34.7276C25.5533 34.7276 26.3501 35.524 26.3501 36.5066C26.3501 37.4892 25.5533 38.2855 24.5702 38.2855C23.5871 38.2855 22.7903 37.4892 22.7903 36.5066ZM24.5702 35.2359C23.8679 35.2359 23.2988 35.8047 23.2988 36.5066C23.2988 37.2085 23.8679 37.7773 24.5702 37.7773C25.2725 37.7773 25.8416 37.2085 25.8416 36.5066C25.8416 35.8047 25.2725 35.2359 24.5702 35.2359Z"
        fill="#0C0C4F" />
    <path
        d="M22.1447 41.533C22.9874 41.533 23.6703 40.8504 23.6703 40.0082C23.6703 39.166 22.9874 38.4834 22.1447 38.4834C21.302 38.4834 20.619 39.166 20.619 40.0082C20.619 40.8504 21.302 41.533 22.1447 41.533Z"
        fill="#0C0C4F" />
    <path fill-rule="evenodd" clip-rule="evenodd"
        d="M20.3647 40.0082C20.3647 39.0256 21.1615 38.2292 22.1447 38.2292C23.1278 38.2292 23.9246 39.0256 23.9246 40.0082C23.9246 40.9908 23.1278 41.7871 22.1447 41.7871C21.1615 41.7871 20.3647 40.9908 20.3647 40.0082ZM22.1447 38.7375C21.4424 38.7375 20.8733 39.3063 20.8733 40.0082C20.8733 40.7101 21.4424 41.2789 22.1447 41.2789C22.8469 41.2789 23.416 40.7101 23.416 40.0082C23.416 39.3063 22.8469 38.7375 22.1447 38.7375Z"
        fill="#0C0C4F" />
    <path fill-rule="evenodd" clip-rule="evenodd" d="M24.2702 33.2249V29.4129H24.7788V33.2249L24.2702 33.2249Z"
        fill="#0C0C4F" />
    <path fill-rule="evenodd" clip-rule="evenodd"
        d="M25.5333 29.7552C24.968 29.4146 24.2605 29.4146 23.6952 29.7552L14.4514 35.3257C13.9172 35.6476 13.5906 36.2256 13.5906 36.8491V47.3902C13.5906 48.0137 13.9172 48.5917 14.4514 48.9136L23.6952 54.4841C24.2605 54.8248 24.968 54.8248 25.5333 54.4841L34.7771 48.9136C35.3113 48.5917 35.6379 48.0137 35.6379 47.3902V36.8491C35.6379 36.2256 35.3113 35.6476 34.7771 35.3257L25.5333 29.7552ZM23.4326 29.32C24.1594 28.882 25.0691 28.882 25.7959 29.32L35.0397 34.8904C35.7266 35.3043 36.1465 36.0475 36.1465 36.8491V47.3902C36.1465 48.1918 35.7266 48.935 35.0397 49.3489L25.7959 54.9194C25.0691 55.3574 24.1594 55.3574 23.4326 54.9194L14.1889 49.3489C13.502 48.935 13.082 48.1918 13.082 47.3902V36.8491C13.082 36.0475 13.502 35.3043 14.1888 34.8904L23.4326 29.32Z"
        fill="#0C0C4F" />
    <path fill-rule="evenodd" clip-rule="evenodd"
        d="M25.5825 34.348C25.0114 33.9978 24.2919 33.9978 23.7208 34.348L18.5081 37.5444C17.9806 37.8679 17.659 38.4421 17.659 39.0607V45.1787C17.659 45.7973 17.9806 46.3715 18.5081 46.695L23.7208 49.8913C24.2919 50.2415 25.0114 50.2415 25.5825 49.8913L30.7952 46.695C31.3227 46.3715 31.6443 45.7973 31.6443 45.1787V39.0607C31.6443 38.4421 31.3227 37.8679 30.7952 37.5444L25.5825 34.348ZM23.4549 33.9148C24.1891 33.4645 25.1142 33.4645 25.8484 33.9148L31.0611 37.1111C31.7394 37.5271 32.1528 38.2653 32.1528 39.0607V45.1787C32.1528 45.974 31.7394 46.7123 31.0611 47.1282L25.8484 50.3246C25.1142 50.7748 24.1891 50.7748 23.4549 50.3246L18.2422 47.1282C17.5639 46.7123 17.1505 45.974 17.1505 45.1787V39.0607C17.1505 38.2653 17.5639 37.5271 18.2422 37.1111L23.4549 33.9148Z"
        fill="#0C0C4F" />
    <path fill-rule="evenodd" clip-rule="evenodd"
        d="M25.5451 42.6745C25.0035 42.3544 24.3331 42.3439 23.7817 42.6468L22.4857 43.3589L22.2407 42.9135L23.5367 42.2014C24.2456 41.8119 25.1076 41.8254 25.804 42.2369L31.9008 45.84L31.642 46.2775L25.5451 42.6745Z"
        fill="#0C0C4F" />
    <path fill-rule="evenodd" clip-rule="evenodd"
        d="M19.9585 44.8744L17.7972 46.2721L17.5209 45.8454L19.6822 44.4476L19.9585 44.8744Z" fill="#0C0C4F" />
    <path fill-rule="evenodd" clip-rule="evenodd"
        d="M17.0372 46.7785L13.9859 48.8116L13.7038 48.3887L16.7551 46.3556L17.0372 46.7785Z" fill="#0C0C4F" />
    <path fill-rule="evenodd" clip-rule="evenodd"
        d="M17.0372 37.5879L13.9859 35.5548L13.7038 35.9777L16.7551 38.0108L17.0372 37.5879Z" fill="#0C0C4F" />
    <path fill-rule="evenodd" clip-rule="evenodd"
        d="M32.5203 46.6514L35.5717 48.6845L35.8538 48.2616L32.8024 46.2285L32.5203 46.6514Z" fill="#0C0C4F" />
    <path fill-rule="evenodd" clip-rule="evenodd"
        d="M32.5203 37.715L35.5717 35.6819L35.8538 36.1048L32.8024 38.1379L32.5203 37.715Z" fill="#0C0C4F" />
</svg>