<svg width="80" height="80" viewBox="0 0 80 80" fill="none" xmlns="http://www.w3.org/2000/svg">
    <path fill-rule="evenodd" clip-rule="evenodd"
        d="M12.1567 4.01014C8.6389 4.20271 5.8457 7.11546 5.8457 10.6804V15.8763C5.8457 17.926 7.50779 19.5876 9.55808 19.5876H16.2404V18.1031H9.55808C8.32791 18.1031 7.33065 17.1061 7.33065 15.8763V10.6804C7.33065 7.81081 9.65757 5.48454 12.528 5.48454C15.3984 5.48454 17.7253 7.81081 17.7253 10.6804V69.3196C17.7253 72.8845 20.5185 75.7973 24.0363 75.9899V76H67.4711C71.1616 76 74.1534 73.0091 74.1534 69.3196V63.3814C74.1534 61.3317 72.4913 59.6701 70.441 59.6701H33.3173C31.267 59.6701 29.6049 61.3317 29.6049 63.3814V69.3196C29.6049 72.1892 27.278 74.5155 24.4076 74.5155C21.5372 74.5155 19.2103 72.1892 19.2103 69.3196V10.6804C19.2103 8.58182 18.2423 6.70925 16.7284 5.48454H60.0464C62.9168 5.48454 65.2437 7.81081 65.2437 10.6804V58.1856H66.7286V10.6804C66.7286 6.99092 63.7369 4 60.0464 4H12.1567V4.01014ZM28.608 74.5155H67.4711C70.3415 74.5155 72.6684 72.1892 72.6684 69.3196V63.3814C72.6684 62.1516 71.6712 61.1546 70.441 61.1546H33.3173C32.0871 61.1546 31.0898 62.1516 31.0898 63.3814V69.3196C31.0898 71.4182 30.1219 73.2908 28.608 74.5155Z"
        fill="currentColor" />
    <path
        d="M25.1501 41.1134C25.1501 40.2935 25.8149 39.6289 26.635 39.6289H57.8189C58.6391 39.6289 59.3039 40.2935 59.3039 41.1134C59.3039 41.9333 58.6391 42.5979 57.8189 42.5979H26.635C25.8149 42.5979 25.1501 41.9333 25.1501 41.1134Z"
        fill="currentColor" />
    <path
        d="M32.5748 45.567C31.7547 45.567 31.0898 46.2317 31.0898 47.0515C31.0898 47.8714 31.7547 48.5361 32.5748 48.5361H51.8791C52.6993 48.5361 53.3641 47.8714 53.3641 47.0515C53.3641 46.2317 52.6993 45.567 51.8791 45.567H32.5748Z"
        fill="currentColor" />
    <path
        d="M28.12 52.9897C28.12 52.1698 28.7848 51.5052 29.6049 51.5052H54.849C55.6692 51.5052 56.334 52.1698 56.334 52.9897C56.334 53.8096 55.6692 54.4742 54.849 54.4742H29.6049C28.7848 54.4742 28.12 53.8096 28.12 52.9897Z"
        fill="currentColor" />
    <path fill-rule="evenodd" clip-rule="evenodd"
        d="M42.227 12.9072C36.4862 12.9072 31.8323 17.5598 31.8323 23.299C31.8323 29.0382 36.4862 33.6907 42.227 33.6907C47.9678 33.6907 52.6216 29.0382 52.6216 23.299C52.6216 17.5598 47.9678 12.9072 42.227 12.9072ZM47.3793 19.5427L48.9544 21.1173L41.4846 28.585L37.3559 24.4575L38.931 22.8829L41.4846 25.4358L47.3793 19.5427Z"
        fill="currentColor" />
</svg>