<svg width="250" height="250" viewBox="0 0 250 250" fill="none" xmlns="http://www.w3.org/2000/svg">
    <path fill-rule="evenodd" clip-rule="evenodd" d="M121.55 192.964V86.5306H126.392V192.964H121.55Z"
        fill="url(#paint0_linear_2619_10662)" />
    <path fill-rule="evenodd" clip-rule="evenodd"
        d="M122.172 129.183L110.624 116.36L114.223 113.122L125.771 125.946L122.172 129.183Z"
        fill="url(#paint1_linear_2619_10662)" />
    <path fill-rule="evenodd" clip-rule="evenodd"
        d="M122.259 175.44L99.1645 152.358L102.588 148.936L125.683 172.018L122.259 175.44Z"
        fill="url(#paint2_linear_2619_10662)" />
    <path
        d="M91.0253 155.32C83.0015 155.32 76.4987 148.82 76.4987 140.801C76.4987 132.782 83.0015 126.283 91.0253 126.283C99.049 126.283 105.552 132.782 105.552 140.801C105.552 148.82 99.049 155.32 91.0253 155.32Z"
        fill="url(#paint3_linear_2619_10662)" />
    <path fill-rule="evenodd" clip-rule="evenodd"
        d="M91.0253 128.702C84.3387 128.702 78.9198 134.118 78.9198 140.801C78.9198 147.484 84.3387 152.9 91.0253 152.9C97.7119 152.9 103.131 147.484 103.131 140.801C103.131 134.118 97.7119 128.702 91.0253 128.702ZM74.0776 140.801C74.0776 131.445 81.6644 123.863 91.0253 123.863C100.386 123.863 107.973 131.445 107.973 140.801C107.973 150.157 100.386 157.739 91.0253 157.739C81.6644 157.739 74.0776 150.157 74.0776 140.801Z"
        fill="url(#paint4_linear_2619_10662)" />
    <path fill-rule="evenodd" clip-rule="evenodd"
        d="M122.259 152.783L145.354 129.701L148.778 133.123L125.683 156.205L122.259 152.783Z"
        fill="url(#paint5_linear_2619_10662)" />
    <path
        d="M156.46 136.085C164.484 136.085 170.987 129.586 170.987 121.566C170.987 113.547 164.484 107.048 156.46 107.048C148.437 107.048 141.934 113.547 141.934 121.566C141.934 129.586 148.437 136.085 156.46 136.085Z"
        fill="url(#paint6_linear_2619_10662)" />
    <path fill-rule="evenodd" clip-rule="evenodd"
        d="M139.513 121.566C139.513 112.211 147.1 104.628 156.46 104.628C165.821 104.628 173.408 112.211 173.408 121.566C173.408 130.922 165.821 138.505 156.46 138.505C147.1 138.505 139.513 130.922 139.513 121.566ZM156.46 109.468C149.774 109.468 144.355 114.883 144.355 121.566C144.355 128.249 149.774 133.665 156.46 133.665C163.147 133.665 168.566 128.249 168.566 121.566C168.566 114.883 163.147 109.468 156.46 109.468Z"
        fill="url(#paint7_linear_2619_10662)" />
    <path
        d="M124.384 86.0737C132.408 86.0737 138.911 79.5745 138.911 71.5552C138.911 63.536 132.408 57.0368 124.384 57.0368C116.361 57.0368 109.858 63.536 109.858 71.5552C109.858 79.5745 116.361 86.0737 124.384 86.0737Z"
        fill="url(#paint8_linear_2619_10662)" />
    <path fill-rule="evenodd" clip-rule="evenodd"
        d="M107.437 71.5552C107.437 62.1996 115.024 54.617 124.384 54.617C133.745 54.617 141.332 62.1996 141.332 71.5552C141.332 80.9109 133.745 88.4935 124.384 88.4935C115.024 88.4935 107.437 80.9109 107.437 71.5552ZM124.384 59.4565C117.698 59.4565 112.279 64.8724 112.279 71.5552C112.279 78.2381 117.698 83.654 124.384 83.654C131.071 83.654 136.49 78.2381 136.49 71.5552C136.49 64.8724 131.071 59.4565 124.384 59.4565Z"
        fill="url(#paint9_linear_2619_10662)" />
    <path
        d="M101.29 119.414C109.313 119.414 115.816 112.915 115.816 104.896C115.816 96.8764 109.313 90.3772 101.29 90.3772C93.2659 90.3772 86.763 96.8764 86.763 104.896C86.763 112.915 93.2659 119.414 101.29 119.414Z"
        fill="url(#paint10_linear_2619_10662)" />
    <path fill-rule="evenodd" clip-rule="evenodd"
        d="M84.3419 104.896C84.3419 95.54 91.9288 87.9574 101.29 87.9574C110.65 87.9574 118.237 95.54 118.237 104.896C118.237 114.251 110.65 121.834 101.29 121.834C91.9288 121.834 84.3419 114.251 84.3419 104.896ZM101.29 92.7969C94.603 92.7969 89.1841 98.2128 89.1841 104.896C89.1841 111.579 94.603 116.994 101.29 116.994C107.976 116.994 113.395 111.579 113.395 104.896C113.395 98.2128 107.976 92.7969 101.29 92.7969Z"
        fill="url(#paint11_linear_2619_10662)" />
    <path fill-rule="evenodd" clip-rule="evenodd" d="M121.528 40.3088V4.01264H126.371V40.3088L121.528 40.3088Z"
        fill="url(#paint12_linear_2619_10662)" />
    <path fill-rule="evenodd" clip-rule="evenodd"
        d="M133.555 7.27226C128.172 4.02857 121.436 4.02857 116.053 7.27226L28.0388 60.3112C22.952 63.3766 19.8422 68.88 19.8422 74.8167V175.183C19.8422 181.12 22.952 186.623 28.0389 189.689L116.053 242.728C121.436 245.971 128.172 245.971 133.555 242.728L221.569 189.689C226.656 186.623 229.766 181.12 229.766 175.183V74.8167C229.766 68.88 226.656 63.3766 221.569 60.3112L133.555 7.27226ZM113.553 3.12785C120.473 -1.04261 129.135 -1.04262 136.055 3.12784L224.069 56.1668C230.61 60.108 234.608 67.1838 234.608 74.8167V175.183C234.608 182.816 230.61 189.892 224.069 193.833L136.055 246.872C129.135 251.043 120.473 251.043 113.553 246.872L25.5386 193.833C18.9983 189.892 15 182.816 15 175.183V74.8167C15 67.1838 18.9983 60.1081 25.5386 56.1668L113.553 3.12785Z"
        fill="url(#paint13_linear_2619_10662)" />
    <path fill-rule="evenodd" clip-rule="evenodd"
        d="M134.023 51.0021C128.585 47.6678 121.735 47.6678 116.297 51.0021L66.6646 81.4363C61.6413 84.5165 58.5798 89.9837 58.5798 95.8738V154.126C58.5798 160.016 61.6413 165.483 66.6646 168.564L116.297 198.998C121.735 202.332 128.585 202.332 134.023 198.998L183.655 168.564C188.679 165.483 191.74 160.016 191.74 154.126V95.8738C191.74 89.9837 188.679 84.5165 183.655 81.4363L134.023 51.0021ZM113.765 46.8771C120.756 42.5901 129.564 42.5901 136.555 46.8771L186.188 77.3113C192.646 81.2716 196.582 88.3009 196.582 95.8738V154.126C196.582 161.699 192.646 168.728 186.188 172.689L136.555 203.123C129.564 207.41 120.756 207.41 113.765 203.123L64.1324 172.689C57.6739 168.728 53.7376 161.699 53.7376 154.126V95.8738C53.7376 88.3008 57.6739 81.2716 64.1324 77.3113L113.765 46.8771Z"
        fill="url(#paint14_linear_2619_10662)" />
    <path fill-rule="evenodd" clip-rule="evenodd"
        d="M133.667 130.282C128.51 127.235 122.127 127.135 116.877 130.019L104.536 136.799L102.204 132.559L114.544 125.778C121.294 122.07 129.501 122.198 136.132 126.117L194.183 160.423L191.718 164.589L133.667 130.282Z"
        fill="url(#paint15_linear_2619_10662)" />
    <path fill-rule="evenodd" clip-rule="evenodd"
        d="M80.4744 151.229L59.895 164.538L57.2645 160.475L77.8438 147.166L80.4744 151.229Z"
        fill="url(#paint16_linear_2619_10662)" />
    <path fill-rule="evenodd" clip-rule="evenodd"
        d="M52.6595 169.359L23.6063 188.717L20.9203 184.69L49.9735 165.332L52.6595 169.359Z"
        fill="url(#paint17_linear_2619_10662)" />
    <path fill-rule="evenodd" clip-rule="evenodd"
        d="M52.6595 81.8509L23.6063 62.493L20.9203 66.5197L49.9735 85.8776L52.6595 81.8509Z"
        fill="url(#paint18_linear_2619_10662)" />
    <path fill-rule="evenodd" clip-rule="evenodd"
        d="M200.082 168.149L229.135 187.507L231.821 183.48L202.768 164.122L200.082 168.149Z"
        fill="url(#paint19_linear_2619_10662)" />
    <path fill-rule="evenodd" clip-rule="evenodd"
        d="M200.082 83.0608L229.135 63.7028L231.821 67.7295L202.768 87.0875L200.082 83.0608Z"
        fill="url(#paint20_linear_2619_10662)" />
    <defs>
        <linearGradient id="paint0_linear_2619_10662" x1="208.203" y1="28.5042" x2="14.952" y2="212.554"
            gradientUnits="userSpaceOnUse">
            <stop stop-color="#7E7EAE" />
            <stop offset="1" stop-color="#85B6FF" />
        </linearGradient>
        <linearGradient id="paint1_linear_2619_10662" x1="208.203" y1="28.5042" x2="14.952" y2="212.554"
            gradientUnits="userSpaceOnUse">
            <stop stop-color="#7E7EAE" />
            <stop offset="1" stop-color="#85B6FF" />
        </linearGradient>
        <linearGradient id="paint2_linear_2619_10662" x1="208.203" y1="28.5042" x2="14.952" y2="212.554"
            gradientUnits="userSpaceOnUse">
            <stop stop-color="#7E7EAE" />
            <stop offset="1" stop-color="#85B6FF" />
        </linearGradient>
        <linearGradient id="paint3_linear_2619_10662" x1="208.203" y1="28.5042" x2="14.952" y2="212.554"
            gradientUnits="userSpaceOnUse">
            <stop stop-color="#7E7EAE" />
            <stop offset="1" stop-color="#85B6FF" />
        </linearGradient>
        <linearGradient id="paint4_linear_2619_10662" x1="208.203" y1="28.5042" x2="14.952" y2="212.554"
            gradientUnits="userSpaceOnUse">
            <stop stop-color="#7E7EAE" />
            <stop offset="1" stop-color="#85B6FF" />
        </linearGradient>
        <linearGradient id="paint5_linear_2619_10662" x1="208.203" y1="28.5042" x2="14.952" y2="212.554"
            gradientUnits="userSpaceOnUse">
            <stop stop-color="#7E7EAE" />
            <stop offset="1" stop-color="#85B6FF" />
        </linearGradient>
        <linearGradient id="paint6_linear_2619_10662" x1="208.203" y1="28.5042" x2="14.952" y2="212.554"
            gradientUnits="userSpaceOnUse">
            <stop stop-color="#7E7EAE" />
            <stop offset="1" stop-color="#85B6FF" />
        </linearGradient>
        <linearGradient id="paint7_linear_2619_10662" x1="208.203" y1="28.5042" x2="14.952" y2="212.554"
            gradientUnits="userSpaceOnUse">
            <stop stop-color="#7E7EAE" />
            <stop offset="1" stop-color="#85B6FF" />
        </linearGradient>
        <linearGradient id="paint8_linear_2619_10662" x1="208.203" y1="28.5042" x2="14.952" y2="212.554"
            gradientUnits="userSpaceOnUse">
            <stop stop-color="#7E7EAE" />
            <stop offset="1" stop-color="#85B6FF" />
        </linearGradient>
        <linearGradient id="paint9_linear_2619_10662" x1="208.203" y1="28.5042" x2="14.952" y2="212.554"
            gradientUnits="userSpaceOnUse">
            <stop stop-color="#7E7EAE" />
            <stop offset="1" stop-color="#85B6FF" />
        </linearGradient>
        <linearGradient id="paint10_linear_2619_10662" x1="208.203" y1="28.5042" x2="14.952" y2="212.554"
            gradientUnits="userSpaceOnUse">
            <stop stop-color="#7E7EAE" />
            <stop offset="1" stop-color="#85B6FF" />
        </linearGradient>
        <linearGradient id="paint11_linear_2619_10662" x1="208.203" y1="28.5042" x2="14.952" y2="212.554"
            gradientUnits="userSpaceOnUse">
            <stop stop-color="#7E7EAE" />
            <stop offset="1" stop-color="#85B6FF" />
        </linearGradient>
        <linearGradient id="paint12_linear_2619_10662" x1="208.203" y1="28.5042" x2="14.952" y2="212.554"
            gradientUnits="userSpaceOnUse">
            <stop stop-color="#7E7EAE" />
            <stop offset="1" stop-color="#85B6FF" />
        </linearGradient>
        <linearGradient id="paint13_linear_2619_10662" x1="208.203" y1="28.5042" x2="14.952" y2="212.554"
            gradientUnits="userSpaceOnUse">
            <stop stop-color="#7E7EAE" />
            <stop offset="1" stop-color="#85B6FF" />
        </linearGradient>
        <linearGradient id="paint14_linear_2619_10662" x1="208.203" y1="28.5042" x2="14.952" y2="212.554"
            gradientUnits="userSpaceOnUse">
            <stop stop-color="#7E7EAE" />
            <stop offset="1" stop-color="#85B6FF" />
        </linearGradient>
        <linearGradient id="paint15_linear_2619_10662" x1="208.203" y1="28.5042" x2="14.952" y2="212.554"
            gradientUnits="userSpaceOnUse">
            <stop stop-color="#7E7EAE" />
            <stop offset="1" stop-color="#85B6FF" />
        </linearGradient>
        <linearGradient id="paint16_linear_2619_10662" x1="208.203" y1="28.5042" x2="14.952" y2="212.554"
            gradientUnits="userSpaceOnUse">
            <stop stop-color="#7E7EAE" />
            <stop offset="1" stop-color="#85B6FF" />
        </linearGradient>
        <linearGradient id="paint17_linear_2619_10662" x1="208.203" y1="28.5042" x2="14.952" y2="212.554"
            gradientUnits="userSpaceOnUse">
            <stop stop-color="#7E7EAE" />
            <stop offset="1" stop-color="#85B6FF" />
        </linearGradient>
        <linearGradient id="paint18_linear_2619_10662" x1="208.203" y1="28.5042" x2="14.952" y2="212.554"
            gradientUnits="userSpaceOnUse">
            <stop stop-color="#7E7EAE" />
            <stop offset="1" stop-color="#85B6FF" />
        </linearGradient>
        <linearGradient id="paint19_linear_2619_10662" x1="208.203" y1="28.5042" x2="14.952" y2="212.554"
            gradientUnits="userSpaceOnUse">
            <stop stop-color="#7E7EAE" />
            <stop offset="1" stop-color="#85B6FF" />
        </linearGradient>
        <linearGradient id="paint20_linear_2619_10662" x1="208.203" y1="28.5042" x2="14.952" y2="212.554"
            gradientUnits="userSpaceOnUse">
            <stop stop-color="#7E7EAE" />
            <stop offset="1" stop-color="#85B6FF" />
        </linearGradient>
    </defs>
</svg>